<?xml version="1.0" standalone="no"?>
<!DOCTYPE svg PUBLIC "-//W3C//DTD SVG 20010904//EN"
 "http://www.w3.org/TR/2001/REC-SVG-20010904/DTD/svg10.dtd">
<svg version="1.0" xmlns="http://www.w3.org/2000/svg"
 width="346.000000pt" height="344.000000pt" viewBox="0 0 346.000000 344.000000"
 preserveAspectRatio="xMidYMid meet">

<g transform="translate(0.000000,344.000000) scale(0.100000,-0.100000)"
fill="#000000" stroke="none">
<path d="M1417 3335 c-54 -7 -108 -17 -120 -23 -12 -5 -42 -15 -67 -21 -93
-24 -216 -65 -230 -77 -8 -6 -51 -28 -95 -48 -44 -20 -89 -45 -100 -55 -11
-10 -34 -26 -51 -34 -42 -22 -144 -105 -236 -195 l-77 -75 36 -29 c20 -15 37
-28 38 -28 2 0 56 53 122 118 182 180 356 288 583 362 294 97 609 93 900 -9
63 -22 114 -39 115 -38 1 1 6 14 13 29 l11 27 -77 25 c-43 13 -95 27 -117 31
-22 4 -45 12 -51 17 -22 17 -229 38 -364 37 -74 -1 -179 -7 -233 -14z"/>
<path d="M2192 2991 c-7 -21 -12 -43 -12 -50 0 -6 28 -24 63 -39 60 -28 191
-112 252 -162 50 -41 180 -173 197 -200 14 -22 18 -24 39 -12 64 35 65 38 33
79 -47 63 -180 190 -262 251 -58 43 -281 172 -297 172 -1 0 -7 -17 -13 -39z"/>
<path d="M1507 2999 c-129 -15 -296 -64 -407 -118 -86 -43 -253 -149 -270
-172 -3 -4 -23 -22 -46 -40 -33 -29 -104 -107 -162 -180 -11 -14 -3 -23 60
-65 40 -27 92 -64 116 -81 53 -40 65 -41 91 -4 33 47 132 139 199 187 126 91
347 173 465 174 20 0 37 3 37 8 0 4 7 57 15 117 20 150 20 185 -2 184 -10 -1
-53 -6 -96 -10z"/>
<path d="M2096 2686 c-9 -30 -16 -59 -16 -64 0 -6 24 -22 53 -36 74 -37 130
-79 221 -167 l80 -76 53 31 c29 16 53 35 53 41 0 5 -45 54 -100 107 -73 71
-129 114 -203 158 -56 33 -107 60 -114 60 -6 0 -19 -24 -27 -54z"/>
<path d="M2946 2615 l-38 -34 60 -118 c33 -65 74 -158 91 -208 17 -49 35 -99
40 -110 5 -11 14 -40 20 -65 30 -130 36 -196 35 -387 l0 -202 36 -6 c20 -3 48
-12 62 -19 23 -12 25 -12 21 4 -3 10 0 21 6 24 14 9 15 432 2 440 -5 4 -12 30
-16 59 -11 89 -56 259 -85 322 -15 33 -38 83 -49 110 -30 70 -124 224 -136
224 -5 0 -27 -15 -49 -34z"/>
<path d="M1505 2588 c-27 -5 -81 -18 -120 -30 -65 -19 -94 -32 -217 -102 -76
-43 -211 -185 -266 -279 -79 -135 -112 -237 -128 -399 l-7 -68 35 0 35 0 6 88
c7 105 36 203 88 298 46 84 126 187 177 229 21 16 47 39 60 51 34 31 167 99
238 122 107 35 231 47 345 33 191 -23 337 -93 478 -228 74 -71 88 -80 106 -71
11 6 22 12 23 14 6 4 -57 93 -72 101 -8 4 -29 22 -48 38 -73 67 -206 144 -290
170 -142 43 -321 56 -443 33z"/>
<path d="M1520 2327 c-25 -7 -62 -20 -84 -30 -21 -9 -42 -17 -46 -17 -13 0
-125 -77 -162 -113 -46 -42 -48 -57 -9 -57 41 0 160 -26 261 -56 300 -90 512
-218 701 -422 l76 -83 12 45 c6 25 11 80 11 123 -2 275 -164 497 -436 595 -72
25 -253 34 -324 15z"/>
<path d="M2903 2252 c-148 -77 -155 -82 -148 -105 11 -37 56 -199 67 -242 5
-22 11 -104 12 -182 0 -78 3 -144 6 -147 3 -3 56 -18 117 -34 l111 -30 7 105
c9 132 0 245 -30 393 -28 132 -53 217 -75 248 l-15 21 -52 -27z"/>
<path d="M2685 2140 c-4 -6 -28 -21 -54 -35 -42 -21 -48 -27 -44 -50 3 -14 9
-25 13 -25 4 0 10 -10 13 -22 26 -119 37 -198 37 -279 0 -96 0 -97 28 -107 30
-12 102 -26 103 -21 10 55 8 158 -6 241 -25 153 -65 308 -79 308 -3 0 -8 -5
-11 -10z"/>
<path d="M2436 2047 c-18 -13 -18 -15 1 -68 33 -89 46 -186 40 -305 -6 -134
-24 -200 -86 -329 -76 -154 -227 -305 -367 -366 -27 -12 -67 -29 -89 -39 -75
-33 -148 -45 -275 -45 -152 0 -213 13 -345 75 -167 78 -303 207 -385 365 -37
73 -47 85 -64 81 -12 -3 -24 -6 -28 -6 -32 0 68 -182 154 -281 131 -150 328
-260 521 -290 89 -14 300 -5 377 16 70 19 220 90 278 132 211 150 351 393 370
642 9 116 -2 249 -30 346 -24 83 -38 97 -72 72z"/>
<path d="M260 1973 c-18 -57 -25 -377 -11 -459 39 -224 139 -470 258 -633 81
-111 243 -267 352 -340 184 -124 363 -193 596 -231 152 -25 263 -25 406 0 108
19 269 57 278 66 11 11 -74 224 -90 224 -5 0 -34 -7 -66 -16 -148 -41 -185
-46 -358 -41 -154 4 -180 7 -270 34 -180 55 -279 104 -408 201 -220 168 -382
423 -444 704 -15 66 -20 294 -10 437 l2 35 -90 21 c-49 12 -100 25 -112 29
-19 6 -23 2 -33 -31z"/>
<path d="M543 1893 c-4 -21 -8 -105 -7 -188 0 -132 3 -162 28 -250 40 -148 63
-204 117 -296 27 -45 49 -84 49 -87 0 -18 184 -207 237 -243 23 -16 48 -36 56
-44 24 -23 207 -116 270 -136 147 -47 338 -67 483 -50 89 10 250 44 260 54 2
2 -2 18 -9 36 -13 36 -10 36 -122 8 -124 -31 -240 -41 -333 -28 -176 24 -268
54 -433 143 -15 8 -42 26 -60 41 -19 14 -48 37 -65 49 -41 31 -124 124 -154
173 -13 22 -30 46 -38 54 -24 25 -84 163 -79 182 3 10 1 17 -3 14 -11 -7 -20
8 -25 42 -2 16 -12 55 -21 88 -14 47 -18 100 -18 252 l-1 191 -57 16 c-32 9
-60 16 -62 16 -3 0 -9 -17 -13 -37z"/>
<path d="M1063 1903 c-6 -16 -17 -63 -24 -106 -36 -218 77 -470 267 -599 184
-125 410 -142 621 -48 72 33 178 115 212 165 l23 35 -28 37 c-98 131 -213 236
-362 329 -47 30 -89 54 -93 54 -4 0 -45 18 -91 39 -76 36 -232 79 -394 110
-96 18 -117 15 -131 -16z"/>
<path d="M780 1619 c0 -16 5 -20 27 -17 17 2 29 10 31 21 3 13 -3 17 -27 17
-25 0 -31 -4 -31 -21z"/>
<path d="M807 1533 c-11 -3 -16 -10 -13 -20 3 -8 6 -21 6 -29 0 -18 34 -18 50
1 26 32 1 60 -43 48z"/>
<path d="M2524 1172 c3 -6 -1 -15 -9 -22 -8 -7 -28 -35 -45 -64 -16 -28 -57
-79 -90 -114 -55 -57 -59 -65 -48 -85 23 -43 87 -132 112 -156 l25 -24 38 31
c73 59 173 174 237 276 20 32 36 59 34 61 -2 2 -43 19 -93 38 -49 19 -107 43
-128 52 -22 9 -36 12 -33 7z"/>
<path d="M2795 1040 c-13 -41 -130 -188 -221 -276 l-93 -92 33 -38 33 -38 110
110 c72 72 133 144 176 211 37 56 67 103 67 106 0 6 -76 37 -90 37 -5 0 -12
-9 -15 -20z"/>
<path d="M2954 938 c-134 -266 -391 -521 -663 -658 -430 -216 -955 -195 -1364
53 l-76 46 -22 -30 c-12 -17 -20 -31 -18 -32 64 -42 94 -58 169 -90 19 -8 60
-26 90 -39 53 -24 165 -55 278 -77 29 -6 169 -11 310 -11 279 0 334 6 517 60
70 21 285 120 285 132 0 4 5 8 10 8 15 0 140 80 175 112 17 15 34 28 38 28 5
0 26 17 47 38 21 20 53 51 71 68 52 48 129 132 129 141 0 5 13 23 28 40 16 17
54 71 85 119 l56 88 -37 22 c-72 42 -78 41 -108 -18z"/>
<path d="M324 881 c-18 -11 -35 -24 -39 -30 -8 -14 49 -108 81 -134 13 -10 24
-24 24 -32 0 -7 6 -18 14 -24 12 -10 22 -6 52 22 l38 34 -59 92 c-33 50 -64
91 -69 91 -6 0 -25 -9 -42 -19z"/>
<path d="M503 627 l-37 -35 42 -42 c24 -23 48 -40 54 -38 6 2 21 17 34 34 l22
29 -38 43 -39 43 -38 -34z"/>
<path d="M2148 643 c-26 -13 -27 -16 -14 -41 7 -15 26 -64 42 -109 15 -46 33
-83 38 -83 6 0 30 9 53 20 l43 19 -41 73 c-22 40 -47 88 -56 106 -18 35 -25
37 -65 15z"/>
<path d="M645 488 l-27 -32 23 -19 c13 -10 40 -32 59 -48 19 -16 38 -29 43
-29 4 0 16 14 26 31 l19 31 -42 36 c-78 69 -71 66 -101 30z"/>
</g>
</svg>
